<svg viewBox="0 0 512 512" xmlns="http://www.w3.org/2000/svg"><path d="m234.572 35.674v134.741l41.965-65.033z"></path><path d="m277.428 476.673v-134.742l-41.965 65.033z"></path><path d="m349.215 55.166-68.251 116.204 69.132-34.864z"></path><path d="m162.785 457.18 68.251-116.204-69.132 34.864z"></path><path d="m398.338 202.023 41.17-70.169-118.392 64.476z"></path><path d="m113.662 310.323-41.17 70.169 118.392-64.476z"></path><path d="m404.959 287.886 72.692-36.606-134.455-10.054z"></path><path d="m107.041 224.46-72.692 36.607 134.455 10.052z"></path><path d="m369.864 357.238 81.305 4.028-111.961-75.077z"></path><path d="m172.792 226.158-30.656-71.049-81.305-4.029z"></path><path d="m309.853 398.521 70.134 41.304-64.253-118.457z"></path><path d="m202.147 113.826-70.134-41.305 64.253 118.458z"></path></svg>