<svg viewBox="0 0 64 64" xmlns="http://www.w3.org/2000/svg"><path d="m59.60923 31.95675c-1.44294-3.5642-2.84276-5.47009-4.39336-6.59a12.27112 12.27112 0 0 0 -5.27633-1.83051c-4.29642-.81837-10.18647-1.94906-18.31629-11.24177a4.96272 4.96272 0 0 0 -3.82268-1.98134h-.12921c-5.16862.12921-11.81245 8.56056-17.14261 15.32282-1.949 2.4874-3.80107 4.83481-5.45938 6.64389-1.17367 1.29211-1.389 3.12268-.61378 5.47009 1.93822 5.95472 10.32652 14.09532 18.23019 15.67818 3.79035.75377 6.79459-.11843 8.93747-2.59506 3.35961-3.898 9.54042-6.22392 15.52742-8.47439 5.7824-2.18594 11.25255-4.24259 12.55544-7.22534a3.90853 3.90853 0 0 0 -.09688-3.17657zm-6.19159 3.1443c-1.29217 2.96119-5.75013 4.63022-10.45573 6.40689-4.25337 1.59371-8.64666 3.252-10.84337 5.804a7.9187 7.9187 0 0 1 -6.23464 2.78894 11.89962 11.89962 0 0 1 -2.25054-.22615c-6.0516-1.21683-13.23382-7.40842-15.05361-12.98623-.78605-2.412-.49535-4.46867.86142-5.94394 1.19523-1.30289 2.552-3.03652 3.995-4.86709 4.44718-5.65319 9.49736-12.06015 14.25679-12.17858a5.546 5.546 0 0 1 4.41485 2.12126c5.65319 6.47157 9.51893 7.20378 12.63089 7.796 3.26266.62456 6.07309 1.163 8.62516 7.45149a5.54 5.54 0 0 1 .43068 2.04587 4.4372 4.4372 0 0 1 -.3769 1.78754z"></path><path d="m44.34024 25.93748c-3.26273-.62456-7.72069-1.47521-13.84768-8.49595a3.489 3.489 0 0 0 -2.67043-1.38905h-.07539c-3.74724.09688-8.66821 6.34229-12.62 11.36021-1.4645 1.86284-2.85354 3.618-4.1026 4.98558-.8076.883-.93681 2.16438-.39841 3.82262 1.43209 4.38258 7.6129 10.36958 13.43842 11.54331 2.72427.5384 4.88864-.08616 6.41774-1.8629 2.56272-2.9612 7.2145-4.71638 11.71551-6.407 4.09188-1.53982 8.31291-3.13346 9.24972-5.2655a2.65176 2.65176 0 0 0 -.07538-2.15359c-2.11053-5.20092-3.96265-5.55628-7.0315-6.13773zm1.53981 9.0774c-.95836 2.20743-4.15642 3.40266-7.53758 4.67334-2.95042 1.11984-6.00856 2.272-7.50532 4.00566a5.89224 5.89224 0 0 1 -4.61944 2.07821 8.93052 8.93052 0 0 1 -1.64754-.17226c-4.4364-.89376-9.50808-5.26556-10.8433-9.35738a4.28758 4.28758 0 0 1 .67833-4.501c.82915-.90454 1.78752-2.12133 2.79971-3.40272 3.17657-4.02721 6.773-8.60361 10.27263-8.68977a4.31363 4.31363 0 0 1 3.35961 1.59371c3.898 4.46867 6.56851 4.98558 8.71132 5.3947 2.37969.45231 4.43641.85072 6.29925 5.42711a3.61438 3.61438 0 0 1 .03233 2.9504z"></path><path d="m41.7559 29.65245a6.07947 6.07947 0 0 0 -2.61661-.90454c-2.33664-.44146-5.53476-1.05524-9.92812-6.08394a2.08189 2.08189 0 0 0 -1.62591-.86142h-.05389c-2.4874.05383-6.04082 4.57639-8.63588 7.87139-1.03375 1.31373-2.01361 2.552-2.90737 3.52115a2.33794 2.33794 0 0 0 -.21537 2.37975c.97992 3.00424 5.22251 7.10684 9.21739 7.91444a4.12284 4.12284 0 0 0 4.221-1.206c1.85213-2.15359 5.16869-3.40265 8.37752-4.60873 2.81043-1.05524 5.7178-2.15359 6.3208-3.52108a1.50482 1.50482 0 0 0 -.05382-1.28139 7.11317 7.11317 0 0 0 -2.09974-3.21963z"></path></svg>